# xmcd
#
# Track frame offsets:
#	150
#	20090
#	39975
#	56072
#	70755
#	90525
#	110857
#	128572
#	144160
#	161490
#	174220
#	189502
#	208462
#	222417
#	241125
#
# Disc length: 3407 seconds
#
# Revision: 1
# Processed by: cddbd v1.5.1PL2 Copyright (c) Steve Scherf et al.
# Submitted via: audiograbber 1.83.01
#
DISCID=d40d4d0f
DTITLE=Country Hits Vol 94 - SC8444
DYEAR=1998
DGENRE=country
TTITLE0=Loveless, Patty - To Have You Back Again
TTITLE1=Keith, Toby - Dream Walkin'
TTITLE2=Lonestar - Say When
TTITLE3=Sellers, Jason - That Does It
TTITLE4=Brown, Sawyer - Another Side
TTITLE5=Sons Of The Desert - Leaving October
TTITLE6=Byrd, Tracy - I'm From The Country
TTITLE7=Alabama - She's Got That Look In Her Eyes
TTITLE8=Parnell, Lee Roy - All That Matters Anymore
TTITLE9=Austin, Sherrie - Put Your Heart Into It
TTITLE10=Berg, Matraca - Back In The Saddle
TTITLE11=Mavericks, The - To Be With You
TTITLE12=Allan, Gary - It Would Be You
TTITLE13=Ricochet - Connected At The Heart
TTITLE14=Miller, Dean - Wake Up And Smell The Whiskey
EXTD=
EXTT0=
EXTT1=
EXTT2=
EXTT3=
EXTT4=
EXTT5=
EXTT6=
EXTT7=
EXTT8=
EXTT9=
EXTT10=
EXTT11=
EXTT12=
EXTT13=
EXTT14=
PLAYORDER=
